# xmcd
#
# Track frame offsets: 
#        182
#        14625
#        43180
#        60702
#        77297
#        94612
#        114635
#        127315
#        144370
#        177435
#
# Disc length: 2575 seconds
#
# Revision: 5
# Processed by: cddbd v1.5.2PL0 Copyright (c) Steve Scherf et al.
# Submitted via: ExactAudioCopy v1.1
#
DISCID=880a0d0a
DTITLE=Johnny Winter - The Progressive Blues Experiment
DYEAR=1968
DGENRE=Rock
TTITLE0=Rollin' And Tumblin'
TTITLE1=Tribute To Muddy
TTITLE2=I Got Love If You Want It
TTITLE3=Bad Luck And Trouble
TTITLE4=Help Me
TTITLE5=Mean Town Blues
TTITLE6=Broke Down Engine
TTITLE7=Black Cat Bone
TTITLE8=It's My Own Fault
TTITLE9=Forty-Four
EXTD=Johnny Winter: guitar, vocals, National steel-standard guitar (tr
EXTD=acks 4,7), mandolin (4), harmonica (4]\nTommy Shannon (ex 4,7): b
EXTD=ass guitar\n"Uncle" John "Red" Turner (ex 4,7): drums\nRecorded a
EXTD=t the Vulcan Gas Company nightclub (without audience), Austin US-
EXTD=TX, 1967 or 1968.\nProduced by Bill Josey and Rim Kelley.\nOrigin
EXTD=ally released as Sonobeat LP RS-1002 (promo only, 1968) and Imper
EXTD=ial LP-12431 (1969).\nCD: CEMA Special Markets/One-Way Records CD
EXTD=LL-57340 (1990), UPC 077775734027.
EXTT0=(McKinley Morganfield [Muddy Waters])
EXTT1=(Johnny Winter)
EXTT2=(James Moore [Slim Harpo])
EXTT3=(Johnny Winter)
EXTT4=(Ralph Bass/Willie Dixon/Sonny Boy Williamson [II])
EXTT5=(Johnny Winter)
EXTT6=(Andy Fernbach - arr. Johnny Winter)
EXTT7=(Johnny Winter)
EXTT8=(B.B. King/Jules Taub)
EXTT9=(Chester Burnett [Howlin' Wolf])
PLAYORDER=
